<?xml version="1.0" standalone="no"?>
<!DOCTYPE svg PUBLIC "-//W3C//DTD SVG 20010904//EN"
 "http://www.w3.org/TR/2001/REC-SVG-20010904/DTD/svg10.dtd">
<svg version="1.0" xmlns="http://www.w3.org/2000/svg"
 width="700.000000pt" height="700.000000pt" viewBox="0 0 700.000000 700.000000"
 preserveAspectRatio="xMidYMid meet">
<metadata>
Created by potrace 1.11, written by Peter Selinger 2001-2013
</metadata>
<g transform="translate(0.000000,700.000000) scale(0.100000,-0.100000)"
fill="#000000" stroke="none">
<path d="M3340 6554 c-220 -15 -451 -51 -645 -103 -375 -99 -800 -315 -1115
-567 -120 -96 -372 -350 -470 -474 -356 -450 -571 -963 -646 -1547 -23 -174
-23 -531 0 -712 163 -1321 1129 -2370 2426 -2635 227 -46 387 -59 670 -53 272
5 411 21 626 72 1166 275 2059 1194 2298 2365 46 229 59 387 53 675 -7 362
-49 602 -159 923 -381 1108 -1351 1892 -2518 2036 -126 16 -418 27 -520 20z
m1137 -1726 c4 -7 7 -76 6 -153 -1 -116 -5 -157 -27 -239 -64 -245 -183 -400
-493 -638 -188 -144 -243 -210 -243 -293 0 -80 53 -142 255 -299 283 -220 401
-366 468 -582 32 -102 50 -262 41 -365 l-7 -79 -983 0 -983 0 -7 47 c-10 71 3
258 25 349 39 157 119 295 247 427 38 39 143 130 234 202 174 139 224 188 246
241 42 101 -6 174 -235 352 -301 234 -431 402 -491 637 -24 91 -36 263 -26
348 l7 57 979 0 c772 0 981 -3 987 -12z"/>
<path d="M2905 4256 c-13 -20 -14 -32 -6 -61 28 -101 101 -176 308 -316 85
-57 167 -121 213 -168 l75 -77 75 76 c46 46 133 115 226 178 156 105 237 180
271 248 31 61 36 93 18 120 l-15 24 -575 0 -575 0 -15 -24z"/>
<path d="M3476 3296 c-25 -40 -89 -98 -253 -232 -226 -186 -353 -326 -427
-471 -42 -84 -31 -150 31 -182 15 -8 213 -11 673 -11 l652 0 34 34 c24 24 34
43 34 65 0 40 -49 138 -110 221 -63 84 -236 253 -375 365 -132 106 -201 170
-225 208 l-17 28 -17 -25z"/>
</g>
</svg>
