<?xml version="1.0" encoding="UTF-8" standalone="no" ?>
<!DOCTYPE svg PUBLIC "-//W3C//DTD SVG 1.1//EN" "http://www.w3.org/Graphics/SVG/1.1/DTD/svg11.dtd">
<svg xmlns="http://www.w3.org/2000/svg" xmlns:xlink="http://www.w3.org/1999/xlink" version="1.1" width="158.51000000000002" height="158.51000000000002" xml:space="preserve">
<desc>Created with Fabric.js 1.6.0-rc.1</desc>
<defs></defs>
<g style="stroke: none; stroke-width: 1; stroke-dasharray: none; stroke-linecap: butt; stroke-linejoin: miter; stroke-miterlimit: 10; fill: none; fill-rule: nonzero; opacity: 1;" transform="translate(10 10) scale(0.27 0.27)" >
  <circle cx="256" cy="256" r="256" style="stroke: none; stroke-width: 1; stroke-dasharray: none; stroke-linecap: butt; stroke-linejoin: miter; stroke-miterlimit: 10; fill: #cc2c2c; fill-rule: nonzero; opacity: 1;" transform="  matrix(1 0 0 1 0 0) "/>
  <path d="M 274.618 256 c 0 -24.776 73.211 -34.96 63.725 -111.709 H 256 h -82.344 C 164.17 221.04 237.382 231.224 237.382 256 s -73.211 34.96 -63.725 111.709 H 256 h 82.344 C 347.829 290.96 274.618 280.776 274.618 256 z" style="stroke: none; stroke-width: 1; stroke-dasharray: none; stroke-linecap: butt; stroke-linejoin: miter; stroke-miterlimit: 10; fill: #E3F2FD; fill-rule: nonzero; opacity: 1;" transform=" matrix(1 0 0 1 0 0) " stroke-linecap="round" />
  <path d="M 173.656 367.709 H 256 V 144.291 h -82.344 C 164.17 221.04 237.382 231.224 237.382 256 S 164.17 290.96 173.656 367.709 z" style="stroke: none; stroke-width: 1; stroke-dasharray: none; stroke-linecap: butt; stroke-linejoin: miter; stroke-miterlimit: 10; fill: #FFFFFF; fill-rule: nonzero; opacity: 1;" transform=" matrix(1 0 0 1 0 0) " stroke-linecap="round" />
  <path d="M 205.331 196.403 c -0.275 -1.368 0.084 -2.783 0.968 -3.863 c 0.884 -1.071 2.206 -1.704 3.598 -1.704 c 15.016 0 30.417 0 46.103 0 v 55.855 C 243.018 225.057 209.929 219.513 205.331 196.403 z" style="stroke: none; stroke-width: 1; stroke-dasharray: none; stroke-linecap: butt; stroke-linejoin: miter; stroke-miterlimit: 10; fill: #EF5350; fill-rule: nonzero; opacity: 1;" transform=" matrix(1 0 0 1 0 0) " stroke-linecap="round" />
  <path d="M 306.669 196.403 c 0.27 -1.368 -0.084 -2.783 -0.968 -3.863 c -0.884 -1.071 -2.206 -1.704 -3.598 -1.704 c -15.016 0 -30.417 0 -46.103 0 v 55.855 C 268.982 225.057 302.071 219.513 306.669 196.403 z" style="stroke: none; stroke-width: 1; stroke-dasharray: none; stroke-linecap: butt; stroke-linejoin: miter; stroke-miterlimit: 10; fill: #d32f2f; fill-rule: nonzero; opacity: 1;" transform=" matrix(1 0 0 1 0 0) " stroke-linecap="round" />
  <path d="M 367.709 125.673 c 0 10.287 -8.341 18.618 -18.618 18.618 H 162.909 c -10.282 0 -18.618 -8.332 -18.618 -18.618 c 0 -10.282 8.336 -18.618 18.618 -18.618 h 186.182 C 359.368 107.055 367.709 115.391 367.709 125.673 z" style="stroke: none; stroke-width: 1; stroke-dasharray: none; stroke-linecap: butt; stroke-linejoin: miter; stroke-miterlimit: 10; fill: #733725; fill-rule: nonzero; opacity: 1;" transform=" matrix(1 0 0 1 0 0) " stroke-linecap="round" />
  <path d="M 256 269.964 c -2.053 12.502 -46.206 32.633 -60.579 66.15 c -1.233 2.872 -0.94 6.172 0.782 8.792 c 1.718 2.607 4.641 4.184 7.768 4.184 H 256 V 269.964 z" style="stroke: none; stroke-width: 1; stroke-dasharray: none; stroke-linecap: butt; stroke-linejoin: miter; stroke-miterlimit: 10; fill: #EF5350; fill-rule: nonzero; opacity: 1;" transform=" matrix(1 0 0 1 0 0) " stroke-linecap="round" />
  <path d="M 307.684 349.091 c 3.16 0 6.102 -1.597 7.815 -4.25 c 1.718 -2.648 1.978 -5.99 0.684 -8.867 C 300.949 302.043 256 281.558 256 269.964 v 79.127 H 307.684 z" style="stroke: none; stroke-width: 1; stroke-dasharray: none; stroke-linecap: butt; stroke-linejoin: miter; stroke-miterlimit: 10; fill: #d32f2f; fill-rule: nonzero; opacity: 1;" transform=" matrix(1 0 0 1 0 0) " stroke-linecap="round" />
  <path d="M 256 107.055 h -93.091 c -10.282 0 -18.618 8.336 -18.618 18.618 s 8.336 18.618 18.618 18.618 H 256 V 107.055 z" style="stroke: none; stroke-width: 1; stroke-dasharray: none; stroke-linecap: butt; stroke-linejoin: miter; stroke-miterlimit: 10; fill: #8F4D38; fill-rule: nonzero; opacity: 1;" transform=" matrix(1 0 0 1 0 0) " stroke-linecap="round" />
  <path d="M 367.709 386.327 c 0 10.287 -8.341 18.618 -18.618 18.618 H 162.909 c -10.282 0 -18.618 -8.332 -18.618 -18.618 c 0 -10.282 8.336 -18.618 18.618 -18.618 h 186.182 C 359.368 367.709 367.709 376.045 367.709 386.327 z" style="stroke: none; stroke-width: 1; stroke-dasharray: none; stroke-linecap: butt; stroke-linejoin: miter; stroke-miterlimit: 10; fill: #733725; fill-rule: nonzero; opacity: 1;" transform=" matrix(1 0 0 1 0 0) " stroke-linecap="round" />
  <path d="M 256 367.709 h -93.091 c -10.282 0 -18.618 8.336 -18.618 18.618 s 8.336 18.618 18.618 18.618 H 256 V 367.709 z" style="stroke: none; stroke-width: 1; stroke-dasharray: none; stroke-linecap: butt; stroke-linejoin: miter; stroke-miterlimit: 10; fill: #8F4D38; fill-rule: nonzero; opacity: 1;" transform=" matrix(1 0 0 1 0 0) " stroke-linecap="round" />
</g>
</svg>